<?xml version="1.0" encoding="UTF-8" standalone="no"?>
<!DOCTYPE svg PUBLIC "-//W3C//DTD SVG 1.1//EN"
 "http://www.w3.org/Graphics/SVG/1.1/DTD/svg11.dtd">
<!-- Generated by graphviz version 9.0.0 (20230911.1827)
 -->
<!-- Pages: 1 -->
<svg width="1674pt" height="1196pt"
 viewBox="0.00 0.00 1674.00 1196.00" xmlns="http://www.w3.org/2000/svg" xmlns:xlink="http://www.w3.org/1999/xlink">
<g id="graph0" class="graph" transform="scale(1 1) rotate(0) translate(4 1192)">
<polygon fill="white" stroke="none" points="-4,4 -4,-1192 1670,-1192 1670,4 -4,4"/>
<!-- broadcaster -->
<g id="node1" class="node">
<title>broadcaster</title>
<polygon fill="none" stroke="black" points="1024,-1188 942,-1188 942,-1152 1024,-1152 1024,-1188"/>
<text text-anchor="middle" x="983" y="-1164.58" font-family="Times New Roman,serif" font-size="14.00">broadcaster</text>
</g>
<!-- nk -->
<g id="node31" class="node">
<title>nk</title>
<ellipse fill="none" stroke="black" cx="277" cy="-1098" rx="27" ry="18"/>
<text text-anchor="middle" x="277" y="-1092.58" font-family="Times New Roman,serif" font-size="14.00">nk</text>
</g>
<!-- broadcaster&#45;&gt;nk -->
<g id="edge87" class="edge">
<title>broadcaster&#45;&gt;nk</title>
<path fill="none" stroke="black" d="M941.73,-1164.91C815.71,-1152.41 437.09,-1114.87 315.23,-1102.79"/>
<polygon fill="black" stroke="black" points="315.74,-1099.32 305.44,-1101.82 315.04,-1106.29 315.74,-1099.32"/>
</g>
<!-- sr -->
<g id="node35" class="node">
<title>sr</title>
<ellipse fill="none" stroke="black" cx="947" cy="-1098" rx="27" ry="18"/>
<text text-anchor="middle" x="947" y="-1092.58" font-family="Times New Roman,serif" font-size="14.00">sr</text>
</g>
<!-- broadcaster&#45;&gt;sr -->
<g id="edge85" class="edge">
<title>broadcaster&#45;&gt;sr</title>
<path fill="none" stroke="black" d="M974.1,-1151.7C970.02,-1143.75 965.08,-1134.16 960.55,-1125.34"/>
<polygon fill="black" stroke="black" points="963.68,-1123.78 956,-1116.49 957.46,-1126.98 963.68,-1123.78"/>
</g>
<!-- sj -->
<g id="node45" class="node">
<title>sj</title>
<ellipse fill="none" stroke="black" cx="1019" cy="-1098" rx="27" ry="18"/>
<text text-anchor="middle" x="1019" y="-1092.58" font-family="Times New Roman,serif" font-size="14.00">sj</text>
</g>
<!-- broadcaster&#45;&gt;sj -->
<g id="edge84" class="edge">
<title>broadcaster&#45;&gt;sj</title>
<path fill="none" stroke="black" d="M991.9,-1151.7C995.98,-1143.75 1000.92,-1134.16 1005.45,-1125.34"/>
<polygon fill="black" stroke="black" points="1008.54,-1126.98 1010,-1116.49 1002.32,-1123.78 1008.54,-1126.98"/>
</g>
<!-- tp -->
<g id="node58" class="node">
<title>tp</title>
<ellipse fill="none" stroke="black" cx="1425" cy="-1098" rx="27" ry="18"/>
<text text-anchor="middle" x="1425" y="-1092.58" font-family="Times New Roman,serif" font-size="14.00">tp</text>
</g>
<!-- broadcaster&#45;&gt;tp -->
<g id="edge86" class="edge">
<title>broadcaster&#45;&gt;tp</title>
<path fill="none" stroke="black" d="M1024.19,-1162.48C1109.67,-1148.94 1305.23,-1117.97 1387.47,-1104.94"/>
<polygon fill="black" stroke="black" points="1387.93,-1108.41 1397.26,-1103.39 1386.84,-1101.5 1387.93,-1108.41"/>
</g>
<!-- xf -->
<g id="node2" class="node">
<title>xf</title>
<ellipse fill="none" stroke="black" cx="431" cy="-882" rx="27" ry="18"/>
<text text-anchor="middle" x="431" y="-876.58" font-family="Times New Roman,serif" font-size="14.00">xf</text>
</g>
<!-- qr -->
<g id="node3" class="node">
<title>qr</title>
<ellipse fill="none" stroke="black" cx="245" cy="-810" rx="27" ry="18"/>
<text text-anchor="middle" x="245" y="-804.58" font-family="Times New Roman,serif" font-size="14.00">qr</text>
</g>
<!-- xf&#45;&gt;qr -->
<g id="edge1" class="edge">
<title>xf&#45;&gt;qr</title>
<path fill="none" stroke="black" d="M407.82,-872.28C375.29,-860.03 315.91,-837.68 278.55,-823.63"/>
<polygon fill="black" stroke="black" points="280.19,-820.5 269.6,-820.26 277.72,-827.05 280.19,-820.5"/>
</g>
<!-- bt -->
<g id="node4" class="node">
<title>bt</title>
<ellipse fill="none" stroke="black" cx="245" cy="-954" rx="27" ry="18"/>
<text text-anchor="middle" x="245" y="-948.58" font-family="Times New Roman,serif" font-size="14.00">bt</text>
</g>
<!-- qr&#45;&gt;bt -->
<g id="edge2" class="edge">
<title>qr&#45;&gt;bt</title>
<path fill="none" stroke="black" d="M245,-828.11C245,-851.92 245,-895.37 245,-924.22"/>
<polygon fill="black" stroke="black" points="241.5,-924.07 245,-934.07 248.5,-924.07 241.5,-924.07"/>
</g>
<!-- zt -->
<g id="node5" class="node">
<title>zt</title>
<ellipse fill="none" stroke="black" cx="207" cy="-738" rx="27" ry="18"/>
<text text-anchor="middle" x="207" y="-732.58" font-family="Times New Roman,serif" font-size="14.00">zt</text>
</g>
<!-- qr&#45;&gt;zt -->
<g id="edge3" class="edge">
<title>qr&#45;&gt;zt</title>
<path fill="none" stroke="black" d="M236.19,-792.76C231.73,-784.55 226.2,-774.37 221.16,-765.09"/>
<polygon fill="black" stroke="black" points="224.33,-763.6 216.49,-756.48 218.18,-766.94 224.33,-763.6"/>
</g>
<!-- bt&#45;&gt;xf -->
<g id="edge31" class="edge">
<title>bt&#45;&gt;xf</title>
<path fill="none" stroke="black" d="M268.72,-944.68C297.54,-934.49 347.55,-916.55 390,-900 392.64,-898.97 395.36,-897.89 398.1,-896.79"/>
<polygon fill="black" stroke="black" points="399.18,-900.12 407.11,-893.1 396.53,-893.65 399.18,-900.12"/>
</g>
<!-- vg -->
<g id="node11" class="node">
<title>vg</title>
<ellipse fill="none" stroke="black" cx="593" cy="-162" rx="27" ry="18"/>
<text text-anchor="middle" x="593" y="-156.57" font-family="Times New Roman,serif" font-size="14.00">vg</text>
</g>
<!-- bt&#45;&gt;vg -->
<g id="edge32" class="edge">
<title>bt&#45;&gt;vg</title>
<path fill="none" stroke="black" d="M266.34,-942.42C303.46,-922.33 376,-874.9 376,-811 376,-811 376,-811 376,-305 376,-220.19 493.48,-183.31 555.56,-169.74"/>
<polygon fill="black" stroke="black" points="556.26,-173.17 565.34,-167.71 554.84,-166.31 556.26,-173.17"/>
</g>
<!-- tl -->
<g id="node26" class="node">
<title>tl</title>
<ellipse fill="none" stroke="black" cx="150" cy="-522" rx="27" ry="18"/>
<text text-anchor="middle" x="150" y="-516.58" font-family="Times New Roman,serif" font-size="14.00">tl</text>
</g>
<!-- bt&#45;&gt;tl -->
<g id="edge28" class="edge">
<title>bt&#45;&gt;tl</title>
<path fill="none" stroke="black" d="M255.6,-937.16C271.59,-911.72 300,-859.64 300,-811 300,-811 300,-811 300,-665 300,-601.06 227.24,-557.31 183.07,-536.63"/>
<polygon fill="black" stroke="black" points="184.72,-533.54 174.16,-532.61 181.84,-539.92 184.72,-533.54"/>
</g>
<!-- bt&#45;&gt;nk -->
<g id="edge29" class="edge">
<title>bt&#45;&gt;nk</title>
<path fill="none" stroke="black" d="M253.15,-971.24C261.1,-994.92 271.44,-1039.27 276.11,-1068.48"/>
<polygon fill="black" stroke="black" points="272.6,-1068.68 277.48,-1078.09 279.53,-1067.7 272.6,-1068.68"/>
</g>
<!-- pb -->
<g id="node34" class="node">
<title>pb</title>
<ellipse fill="none" stroke="black" cx="169" cy="-666" rx="27" ry="18"/>
<text text-anchor="middle" x="169" y="-660.58" font-family="Times New Roman,serif" font-size="14.00">pb</text>
</g>
<!-- bt&#45;&gt;pb -->
<g id="edge30" class="edge">
<title>bt&#45;&gt;pb</title>
<path fill="none" stroke="black" d="M234.07,-937.35C227.28,-927.09 218.79,-913.19 213,-900 186.21,-838.95 181.17,-821.89 171,-756 167.91,-735.99 167.46,-713.16 167.76,-695.63"/>
<polygon fill="black" stroke="black" points="171.25,-695.78 168.03,-685.69 164.26,-695.59 171.25,-695.78"/>
</g>
<!-- zt&#45;&gt;bt -->
<g id="edge83" class="edge">
<title>zt&#45;&gt;bt</title>
<path fill="none" stroke="black" d="M206.08,-756.18C205.43,-774.18 205.22,-803.25 209,-828 214.24,-862.31 226.16,-900.46 234.85,-925.49"/>
<polygon fill="black" stroke="black" points="231.55,-926.65 238.19,-934.9 238.14,-924.3 231.55,-926.65"/>
</g>
<!-- zt&#45;&gt;pb -->
<g id="edge82" class="edge">
<title>zt&#45;&gt;pb</title>
<path fill="none" stroke="black" d="M198.19,-720.76C193.73,-712.55 188.2,-702.37 183.16,-693.09"/>
<polygon fill="black" stroke="black" points="186.33,-691.6 178.49,-684.48 180.18,-694.94 186.33,-691.6"/>
</g>
<!-- xm -->
<g id="node6" class="node">
<title>xm</title>
<ellipse fill="none" stroke="black" cx="1421" cy="-666" rx="27" ry="18"/>
<text text-anchor="middle" x="1421" y="-660.58" font-family="Times New Roman,serif" font-size="14.00">xm</text>
</g>
<!-- gp -->
<g id="node7" class="node">
<title>gp</title>
<ellipse fill="none" stroke="black" cx="1457" cy="-882" rx="27" ry="18"/>
<text text-anchor="middle" x="1457" y="-876.58" font-family="Times New Roman,serif" font-size="14.00">gp</text>
</g>
<!-- xm&#45;&gt;gp -->
<g id="edge4" class="edge">
<title>xm&#45;&gt;gp</title>
<path fill="none" stroke="black" d="M1423.9,-684.23C1430.09,-721.01 1444.64,-807.5 1452.22,-852.57"/>
<polygon fill="black" stroke="black" points="1448.75,-853.08 1453.86,-862.36 1455.66,-851.91 1448.75,-853.08"/>
</g>
<!-- cq -->
<g id="node8" class="node">
<title>cq</title>
<ellipse fill="none" stroke="black" cx="1459" cy="-594" rx="27" ry="18"/>
<text text-anchor="middle" x="1459" y="-588.58" font-family="Times New Roman,serif" font-size="14.00">cq</text>
</g>
<!-- xm&#45;&gt;cq -->
<g id="edge5" class="edge">
<title>xm&#45;&gt;cq</title>
<path fill="none" stroke="black" d="M1429.81,-648.76C1434.27,-640.55 1439.8,-630.37 1444.84,-621.09"/>
<polygon fill="black" stroke="black" points="1447.82,-622.94 1449.51,-612.48 1441.67,-619.6 1447.82,-622.94"/>
</g>
<!-- ls -->
<g id="node51" class="node">
<title>ls</title>
<ellipse fill="none" stroke="black" cx="1338" cy="-162" rx="27" ry="18"/>
<text text-anchor="middle" x="1338" y="-156.57" font-family="Times New Roman,serif" font-size="14.00">ls</text>
</g>
<!-- gp&#45;&gt;ls -->
<g id="edge103" class="edge">
<title>gp&#45;&gt;ls</title>
<path fill="none" stroke="black" d="M1483.05,-876.09C1539.07,-863.87 1666,-826.52 1666,-739 1666,-739 1666,-739 1666,-305 1666,-261.99 1661.6,-242.84 1628,-216 1589.63,-185.35 1445.83,-170.87 1376.22,-165.54"/>
<polygon fill="black" stroke="black" points="1376.66,-162.06 1366.43,-164.82 1376.15,-169.04 1376.66,-162.06"/>
</g>
<!-- nv -->
<g id="node52" class="node">
<title>nv</title>
<ellipse fill="none" stroke="black" cx="1383" cy="-738" rx="27" ry="18"/>
<text text-anchor="middle" x="1383" y="-732.58" font-family="Times New Roman,serif" font-size="14.00">nv</text>
</g>
<!-- gp&#45;&gt;nv -->
<g id="edge106" class="edge">
<title>gp&#45;&gt;nv</title>
<path fill="none" stroke="black" d="M1446.35,-865.07C1439.61,-854.71 1430.89,-840.79 1424,-828 1413.09,-807.76 1402.27,-784.08 1394.49,-766.24"/>
<polygon fill="black" stroke="black" points="1397.72,-764.89 1390.55,-757.1 1391.29,-767.66 1397.72,-764.89"/>
</g>
<!-- df -->
<g id="node53" class="node">
<title>df</title>
<ellipse fill="none" stroke="black" cx="1307" cy="-810" rx="27" ry="18"/>
<text text-anchor="middle" x="1307" y="-804.58" font-family="Times New Roman,serif" font-size="14.00">df</text>
</g>
<!-- gp&#45;&gt;df -->
<g id="edge102" class="edge">
<title>gp&#45;&gt;df</title>
<path fill="none" stroke="black" d="M1435.19,-870.82C1409.97,-859.05 1368.23,-839.57 1339.25,-826.05"/>
<polygon fill="black" stroke="black" points="1340.75,-822.89 1330.21,-821.83 1337.79,-829.23 1340.75,-822.89"/>
</g>
<!-- mq -->
<g id="node55" class="node">
<title>mq</title>
<ellipse fill="none" stroke="black" cx="1497" cy="-522" rx="27" ry="18"/>
<text text-anchor="middle" x="1497" y="-516.58" font-family="Times New Roman,serif" font-size="14.00">mq</text>
</g>
<!-- gp&#45;&gt;mq -->
<g id="edge104" class="edge">
<title>gp&#45;&gt;mq</title>
<path fill="none" stroke="black" d="M1467.99,-865.22C1484.55,-839.85 1514,-787.88 1514,-739 1514,-739 1514,-739 1514,-665 1514,-625.24 1507.35,-579.67 1502.37,-551.1"/>
<polygon fill="black" stroke="black" points="1505.85,-550.68 1500.63,-541.46 1498.96,-551.92 1505.85,-550.68"/>
</g>
<!-- gp&#45;&gt;tp -->
<g id="edge105" class="edge">
<title>gp&#45;&gt;tp</title>
<path fill="none" stroke="black" d="M1458.3,-900.31C1456.28,-937.32 1443.53,-1024.43 1433.86,-1069.27"/>
<polygon fill="black" stroke="black" points="1430.52,-1068.2 1431.69,-1078.73 1437.34,-1069.77 1430.52,-1068.2"/>
</g>
<!-- cq&#45;&gt;gp -->
<g id="edge65" class="edge">
<title>cq&#45;&gt;gp</title>
<path fill="none" stroke="black" d="M1459.01,-612.25C1459.02,-650.88 1458.93,-747.3 1458,-828 1457.91,-835.94 1457.76,-844.56 1457.61,-852.49"/>
<polygon fill="black" stroke="black" points="1454.12,-852.23 1457.42,-862.3 1461.12,-852.37 1454.12,-852.23"/>
</g>
<!-- cq&#45;&gt;mq -->
<g id="edge66" class="edge">
<title>cq&#45;&gt;mq</title>
<path fill="none" stroke="black" d="M1467.81,-576.76C1472.27,-568.55 1477.8,-558.37 1482.84,-549.09"/>
<polygon fill="black" stroke="black" points="1485.82,-550.94 1487.51,-540.48 1479.67,-547.6 1485.82,-550.94"/>
</g>
<!-- zs -->
<g id="node9" class="node">
<title>zs</title>
<ellipse fill="none" stroke="black" cx="1159" cy="-810" rx="27" ry="18"/>
<text text-anchor="middle" x="1159" y="-804.58" font-family="Times New Roman,serif" font-size="14.00">zs</text>
</g>
<!-- ct -->
<g id="node10" class="node">
<title>ct</title>
<ellipse fill="none" stroke="black" cx="1197" cy="-738" rx="27" ry="18"/>
<text text-anchor="middle" x="1197" y="-732.58" font-family="Times New Roman,serif" font-size="14.00">ct</text>
</g>
<!-- zs&#45;&gt;ct -->
<g id="edge6" class="edge">
<title>zs&#45;&gt;ct</title>
<path fill="none" stroke="black" d="M1167.81,-792.76C1172.27,-784.55 1177.8,-774.37 1182.84,-765.09"/>
<polygon fill="black" stroke="black" points="1185.82,-766.94 1187.51,-756.48 1179.67,-763.6 1185.82,-766.94"/>
</g>
<!-- rb -->
<g id="node23" class="node">
<title>rb</title>
<ellipse fill="none" stroke="black" cx="1106" cy="-666" rx="27" ry="18"/>
<text text-anchor="middle" x="1106" y="-660.58" font-family="Times New Roman,serif" font-size="14.00">rb</text>
</g>
<!-- ct&#45;&gt;rb -->
<g id="edge48" class="edge">
<title>ct&#45;&gt;rb</title>
<path fill="none" stroke="black" d="M1179.88,-723.83C1166.5,-713.54 1147.65,-699.04 1132.34,-687.26"/>
<polygon fill="black" stroke="black" points="1134.61,-684.59 1124.55,-681.27 1130.34,-690.14 1134.61,-684.59"/>
</g>
<!-- rt -->
<g id="node44" class="node">
<title>rt</title>
<ellipse fill="none" stroke="black" cx="1261" cy="-594" rx="27" ry="18"/>
<text text-anchor="middle" x="1261" y="-588.58" font-family="Times New Roman,serif" font-size="14.00">rt</text>
</g>
<!-- ct&#45;&gt;rt -->
<g id="edge47" class="edge">
<title>ct&#45;&gt;rt</title>
<path fill="none" stroke="black" d="M1204.47,-720.43C1215.4,-696.17 1235.89,-650.71 1248.97,-621.7"/>
<polygon fill="black" stroke="black" points="1252.04,-623.4 1252.96,-612.84 1245.66,-620.52 1252.04,-623.4"/>
</g>
<!-- lg -->
<g id="node12" class="node">
<title>lg</title>
<ellipse fill="none" stroke="black" cx="937" cy="-90" rx="27" ry="18"/>
<text text-anchor="middle" x="937" y="-84.58" font-family="Times New Roman,serif" font-size="14.00">lg</text>
</g>
<!-- vg&#45;&gt;lg -->
<g id="edge7" class="edge">
<title>vg&#45;&gt;lg</title>
<path fill="none" stroke="black" d="M618.86,-155.74C679.39,-143.42 830.48,-112.68 900.42,-98.44"/>
<polygon fill="black" stroke="black" points="900.73,-101.95 909.83,-96.53 899.33,-95.09 900.73,-101.95"/>
</g>
<!-- rx -->
<g id="node56" class="node">
<title>rx</title>
<ellipse fill="none" stroke="black" cx="937" cy="-18" rx="27" ry="18"/>
<text text-anchor="middle" x="937" y="-12.57" font-family="Times New Roman,serif" font-size="14.00">rx</text>
</g>
<!-- lg&#45;&gt;rx -->
<g id="edge68" class="edge">
<title>lg&#45;&gt;rx</title>
<path fill="none" stroke="black" d="M937,-71.7C937,-64.41 937,-55.73 937,-47.54"/>
<polygon fill="black" stroke="black" points="940.5,-47.62 937,-37.62 933.5,-47.62 940.5,-47.62"/>
</g>
<!-- dx -->
<g id="node13" class="node">
<title>dx</title>
<ellipse fill="none" stroke="black" cx="74" cy="-306" rx="27" ry="18"/>
<text text-anchor="middle" x="74" y="-300.57" font-family="Times New Roman,serif" font-size="14.00">dx</text>
</g>
<!-- dx&#45;&gt;bt -->
<g id="edge8" class="edge">
<title>dx&#45;&gt;bt</title>
<path fill="none" stroke="black" d="M60.08,-321.84C38.65,-346.32 0,-397.57 0,-449 0,-811 0,-811 0,-811 0,-856.15 13.49,-872.11 49,-900 94.99,-936.12 163.69,-947.69 206.35,-951.35"/>
<polygon fill="black" stroke="black" points="205.91,-954.83 216.14,-952.08 206.42,-947.85 205.91,-954.83"/>
</g>
<!-- tz -->
<g id="node14" class="node">
<title>tz</title>
<ellipse fill="none" stroke="black" cx="207" cy="-234" rx="27" ry="18"/>
<text text-anchor="middle" x="207" y="-228.57" font-family="Times New Roman,serif" font-size="14.00">tz</text>
</g>
<!-- dx&#45;&gt;tz -->
<g id="edge9" class="edge">
<title>dx&#45;&gt;tz</title>
<path fill="none" stroke="black" d="M94.78,-294.06C116.64,-282.56 151.29,-264.32 176.3,-251.16"/>
<polygon fill="black" stroke="black" points="177.81,-254.32 185.03,-246.57 174.55,-248.13 177.81,-254.32"/>
</g>
<!-- tz&#45;&gt;bt -->
<g id="edge14" class="edge">
<title>tz&#45;&gt;bt</title>
<path fill="none" stroke="black" d="M228.34,-245.58C265.46,-265.67 338,-313.1 338,-377 338,-811 338,-811 338,-811 338,-860.73 297.6,-906.59 270.05,-932.08"/>
<polygon fill="black" stroke="black" points="267.87,-929.34 262.75,-938.61 272.54,-934.55 267.87,-929.34"/>
</g>
<!-- tq -->
<g id="node15" class="node">
<title>tq</title>
<ellipse fill="none" stroke="black" cx="560" cy="-954" rx="27" ry="18"/>
<text text-anchor="middle" x="560" y="-948.58" font-family="Times New Roman,serif" font-size="14.00">tq</text>
</g>
<!-- jm -->
<g id="node16" class="node">
<title>jm</title>
<ellipse fill="none" stroke="black" cx="579" cy="-882" rx="27" ry="18"/>
<text text-anchor="middle" x="579" y="-876.58" font-family="Times New Roman,serif" font-size="14.00">jm</text>
</g>
<!-- tq&#45;&gt;jm -->
<g id="edge10" class="edge">
<title>tq&#45;&gt;jm</title>
<path fill="none" stroke="black" d="M564.6,-936.05C566.65,-928.49 569.13,-919.37 571.44,-910.85"/>
<polygon fill="black" stroke="black" points="574.8,-911.82 574.05,-901.25 568.05,-909.98 574.8,-911.82"/>
</g>
<!-- kp -->
<g id="node32" class="node">
<title>kp</title>
<ellipse fill="none" stroke="black" cx="684" cy="-810" rx="27" ry="18"/>
<text text-anchor="middle" x="684" y="-804.58" font-family="Times New Roman,serif" font-size="14.00">kp</text>
</g>
<!-- jm&#45;&gt;kp -->
<g id="edge37" class="edge">
<title>jm&#45;&gt;kp</title>
<path fill="none" stroke="black" d="M597.77,-868.49C613.97,-857.69 637.6,-841.93 656.03,-829.65"/>
<polygon fill="black" stroke="black" points="657.75,-832.71 664.13,-824.25 653.87,-826.88 657.75,-832.71"/>
</g>
<!-- ml -->
<g id="node37" class="node">
<title>ml</title>
<ellipse fill="none" stroke="black" cx="767" cy="-234" rx="27" ry="18"/>
<text text-anchor="middle" x="767" y="-228.57" font-family="Times New Roman,serif" font-size="14.00">ml</text>
</g>
<!-- jm&#45;&gt;ml -->
<g id="edge36" class="edge">
<title>jm&#45;&gt;ml</title>
<path fill="none" stroke="black" d="M575.64,-864.03C570.69,-837.48 562,-784.44 562,-739 562,-739 562,-739 562,-377 562,-332.47 574.17,-316.95 608,-288 642.56,-258.43 694.2,-245.21 729.18,-239.4"/>
<polygon fill="black" stroke="black" points="729.5,-242.89 738.86,-237.93 728.44,-235.97 729.5,-242.89"/>
</g>
<!-- pr -->
<g id="node17" class="node">
<title>pr</title>
<ellipse fill="none" stroke="black" cx="1516" cy="-450" rx="27" ry="18"/>
<text text-anchor="middle" x="1516" y="-444.57" font-family="Times New Roman,serif" font-size="14.00">pr</text>
</g>
<!-- pr&#45;&gt;gp -->
<g id="edge11" class="edge">
<title>pr&#45;&gt;gp</title>
<path fill="none" stroke="black" d="M1523.11,-467.7C1533.6,-493.89 1552,-546.46 1552,-593 1552,-739 1552,-739 1552,-739 1552,-789.05 1510.73,-834.81 1482.59,-860.2"/>
<polygon fill="black" stroke="black" points="1480.36,-857.5 1475.12,-866.71 1484.96,-862.77 1480.36,-857.5"/>
</g>
<!-- pf -->
<g id="node18" class="node">
<title>pf</title>
<ellipse fill="none" stroke="black" cx="1516" cy="-378" rx="27" ry="18"/>
<text text-anchor="middle" x="1516" y="-372.57" font-family="Times New Roman,serif" font-size="14.00">pf</text>
</g>
<!-- pr&#45;&gt;pf -->
<g id="edge12" class="edge">
<title>pr&#45;&gt;pf</title>
<path fill="none" stroke="black" d="M1516,-431.7C1516,-424.41 1516,-415.73 1516,-407.54"/>
<polygon fill="black" stroke="black" points="1519.5,-407.62 1516,-397.62 1512.5,-407.62 1519.5,-407.62"/>
</g>
<!-- pf&#45;&gt;gp -->
<g id="edge78" class="edge">
<title>pf&#45;&gt;gp</title>
<path fill="none" stroke="black" d="M1491.04,-385.2C1439.9,-399.56 1328,-440.22 1328,-521 1328,-667 1328,-667 1328,-667 1328,-745.94 1350.48,-769.07 1403,-828 1412.6,-838.77 1423.9,-850.05 1433.68,-859.43"/>
<polygon fill="black" stroke="black" points="1431.03,-861.74 1440.7,-866.07 1435.84,-856.66 1431.03,-861.74"/>
</g>
<!-- nt -->
<g id="node47" class="node">
<title>nt</title>
<ellipse fill="none" stroke="black" cx="1573" cy="-306" rx="27" ry="18"/>
<text text-anchor="middle" x="1573" y="-300.57" font-family="Times New Roman,serif" font-size="14.00">nt</text>
</g>
<!-- pf&#45;&gt;nt -->
<g id="edge79" class="edge">
<title>pf&#45;&gt;nt</title>
<path fill="none" stroke="black" d="M1528.37,-361.81C1535.69,-352.82 1545.13,-341.23 1553.43,-331.03"/>
<polygon fill="black" stroke="black" points="1556.1,-333.3 1559.7,-323.33 1550.67,-328.88 1556.1,-333.3"/>
</g>
<!-- nb -->
<g id="node19" class="node">
<title>nb</title>
<ellipse fill="none" stroke="black" cx="824" cy="-162" rx="27" ry="18"/>
<text text-anchor="middle" x="824" y="-156.57" font-family="Times New Roman,serif" font-size="14.00">nb</text>
</g>
<!-- nb&#45;&gt;lg -->
<g id="edge13" class="edge">
<title>nb&#45;&gt;lg</title>
<path fill="none" stroke="black" d="M843.43,-148.97C861.24,-137.93 887.86,-121.44 908.15,-108.87"/>
<polygon fill="black" stroke="black" points="909.88,-111.92 916.54,-103.67 906.2,-105.96 909.88,-111.92"/>
</g>
<!-- kj -->
<g id="node20" class="node">
<title>kj</title>
<ellipse fill="none" stroke="black" cx="1102" cy="-1026" rx="27" ry="18"/>
<text text-anchor="middle" x="1102" y="-1020.58" font-family="Times New Roman,serif" font-size="14.00">kj</text>
</g>
<!-- fk -->
<g id="node21" class="node">
<title>fk</title>
<ellipse fill="none" stroke="black" cx="1102" cy="-954" rx="27" ry="18"/>
<text text-anchor="middle" x="1102" y="-948.58" font-family="Times New Roman,serif" font-size="14.00">fk</text>
</g>
<!-- kj&#45;&gt;fk -->
<g id="edge15" class="edge">
<title>kj&#45;&gt;fk</title>
<path fill="none" stroke="black" d="M1102,-1007.7C1102,-1000.41 1102,-991.73 1102,-983.54"/>
<polygon fill="black" stroke="black" points="1105.5,-983.62 1102,-973.62 1098.5,-983.62 1105.5,-983.62"/>
</g>
<!-- xh -->
<g id="node24" class="node">
<title>xh</title>
<ellipse fill="none" stroke="black" cx="1121" cy="-882" rx="27" ry="18"/>
<text text-anchor="middle" x="1121" y="-876.58" font-family="Times New Roman,serif" font-size="14.00">xh</text>
</g>
<!-- fk&#45;&gt;xh -->
<g id="edge107" class="edge">
<title>fk&#45;&gt;xh</title>
<path fill="none" stroke="black" d="M1106.6,-936.05C1108.65,-928.49 1111.13,-919.37 1113.44,-910.85"/>
<polygon fill="black" stroke="black" points="1116.8,-911.82 1116.05,-901.25 1110.05,-909.98 1116.8,-911.82"/>
</g>
<!-- hx -->
<g id="node22" class="node">
<title>hx</title>
<ellipse fill="none" stroke="black" cx="1078" cy="-234" rx="27" ry="18"/>
<text text-anchor="middle" x="1078" y="-228.57" font-family="Times New Roman,serif" font-size="14.00">hx</text>
</g>
<!-- hx&#45;&gt;rb -->
<g id="edge16" class="edge">
<title>hx&#45;&gt;rb</title>
<path fill="none" stroke="black" d="M1069.13,-251.06C1055.76,-276.82 1032,-329.32 1032,-377 1032,-523 1032,-523 1032,-523 1032,-569 1062.92,-614.87 1084.79,-641.55"/>
<polygon fill="black" stroke="black" points="1081.97,-643.64 1091.1,-649 1087.31,-639.11 1081.97,-643.64"/>
</g>
<!-- rb&#45;&gt;zs -->
<g id="edge90" class="edge">
<title>rb&#45;&gt;zs</title>
<path fill="none" stroke="black" d="M1112.28,-683.82C1121.28,-707.94 1137.95,-752.6 1148.75,-781.54"/>
<polygon fill="black" stroke="black" points="1145.41,-782.59 1152.18,-790.74 1151.97,-780.14 1145.41,-782.59"/>
</g>
<!-- rb&#45;&gt;kj -->
<g id="edge95" class="edge">
<title>rb&#45;&gt;kj</title>
<path fill="none" stroke="black" d="M1132.4,-670.68C1161.51,-676.18 1207.59,-689.39 1233,-720 1258.84,-751.12 1252,-768.55 1252,-809 1252,-883 1252,-883 1252,-883 1252,-946.94 1179.24,-990.69 1135.07,-1011.37"/>
<polygon fill="black" stroke="black" points="1133.84,-1008.08 1126.16,-1015.39 1136.72,-1014.46 1133.84,-1008.08"/>
</g>
<!-- rb&#45;&gt;fk -->
<g id="edge91" class="edge">
<title>rb&#45;&gt;fk</title>
<path fill="none" stroke="black" d="M1101.62,-684.05C1092.32,-722.68 1072.44,-819.75 1085,-900 1086.32,-908.44 1088.75,-917.36 1091.38,-925.44"/>
<polygon fill="black" stroke="black" points="1088.01,-926.42 1094.61,-934.71 1094.62,-924.12 1088.01,-926.42"/>
</g>
<!-- vc -->
<g id="node25" class="node">
<title>vc</title>
<ellipse fill="none" stroke="black" cx="966" cy="-162" rx="27" ry="18"/>
<text text-anchor="middle" x="966" y="-156.57" font-family="Times New Roman,serif" font-size="14.00">vc</text>
</g>
<!-- rb&#45;&gt;vc -->
<g id="edge89" class="edge">
<title>rb&#45;&gt;vc</title>
<path fill="none" stroke="black" d="M1086.75,-652.93C1054.72,-631.2 994,-582.19 994,-523 994,-523 994,-523 994,-305 994,-264.59 982.95,-218.9 974.73,-190.52"/>
<polygon fill="black" stroke="black" points="978.19,-189.86 971.97,-181.29 971.48,-191.87 978.19,-189.86"/>
</g>
<!-- rb&#45;&gt;rt -->
<g id="edge93" class="edge">
<title>rb&#45;&gt;rt</title>
<path fill="none" stroke="black" d="M1127.88,-655.12C1154.19,-643.24 1198.57,-623.19 1228.8,-609.54"/>
<polygon fill="black" stroke="black" points="1230.18,-612.76 1237.85,-605.45 1227.3,-606.38 1230.18,-612.76"/>
</g>
<!-- rb&#45;&gt;sj -->
<g id="edge94" class="edge">
<title>rb&#45;&gt;sj</title>
<path fill="none" stroke="black" d="M1094.16,-682.55C1071.97,-706.81 1028,-756.38 1028,-809 1028,-955 1028,-955 1028,-955 1028,-994.48 1028,-1040.12 1025.8,-1068.78"/>
<polygon fill="black" stroke="black" points="1022.34,-1068.15 1024.86,-1078.44 1029.31,-1068.83 1022.34,-1068.15"/>
</g>
<!-- hq -->
<g id="node50" class="node">
<title>hq</title>
<ellipse fill="none" stroke="black" cx="1163" cy="-522" rx="27" ry="18"/>
<text text-anchor="middle" x="1163" y="-516.58" font-family="Times New Roman,serif" font-size="14.00">hq</text>
</g>
<!-- rb&#45;&gt;hq -->
<g id="edge92" class="edge">
<title>rb&#45;&gt;hq</title>
<path fill="none" stroke="black" d="M1112.76,-648.15C1122.45,-624.03 1140.38,-579.36 1151.99,-550.43"/>
<polygon fill="black" stroke="black" points="1155.21,-551.81 1155.68,-541.23 1148.71,-549.21 1155.21,-551.81"/>
</g>
<!-- xh&#45;&gt;zs -->
<g id="edge17" class="edge">
<title>xh&#45;&gt;zs</title>
<path fill="none" stroke="black" d="M1129.81,-864.76C1134.27,-856.55 1139.8,-846.37 1144.84,-837.09"/>
<polygon fill="black" stroke="black" points="1147.82,-838.94 1149.51,-828.48 1141.67,-835.6 1147.82,-838.94"/>
</g>
<!-- xh&#45;&gt;rb -->
<g id="edge18" class="edge">
<title>xh&#45;&gt;rb</title>
<path fill="none" stroke="black" d="M1119.8,-863.85C1117.23,-827.14 1111.16,-740.66 1108,-695.53"/>
<polygon fill="black" stroke="black" points="1111.5,-695.47 1107.31,-685.74 1104.52,-695.96 1111.5,-695.47"/>
</g>
<!-- vc&#45;&gt;lg -->
<g id="edge19" class="edge">
<title>vc&#45;&gt;lg</title>
<path fill="none" stroke="black" d="M959.13,-144.41C955.84,-136.48 951.82,-126.78 948.12,-117.84"/>
<polygon fill="black" stroke="black" points="951.46,-116.77 944.4,-108.87 945,-119.45 951.46,-116.77"/>
</g>
<!-- bn -->
<g id="node27" class="node">
<title>bn</title>
<ellipse fill="none" stroke="black" cx="93" cy="-450" rx="27" ry="18"/>
<text text-anchor="middle" x="93" y="-444.57" font-family="Times New Roman,serif" font-size="14.00">bn</text>
</g>
<!-- tl&#45;&gt;bn -->
<g id="edge20" class="edge">
<title>tl&#45;&gt;bn</title>
<path fill="none" stroke="black" d="M137.63,-505.81C130.31,-496.82 120.87,-485.23 112.57,-475.03"/>
<polygon fill="black" stroke="black" points="115.33,-472.88 106.3,-467.33 109.9,-477.3 115.33,-472.88"/>
</g>
<!-- bn&#45;&gt;bt -->
<g id="edge55" class="edge">
<title>bn&#45;&gt;bt</title>
<path fill="none" stroke="black" d="M89.64,-467.97C84.69,-494.52 76,-547.56 76,-593 76,-811 76,-811 76,-811 76,-857.27 95.48,-869.19 130,-900 152.9,-920.44 185.03,-934.35 209.5,-942.77"/>
<polygon fill="black" stroke="black" points="208.12,-946 218.71,-945.79 210.3,-939.35 208.12,-946"/>
</g>
<!-- sv -->
<g id="node41" class="node">
<title>sv</title>
<ellipse fill="none" stroke="black" cx="74" cy="-378" rx="27" ry="18"/>
<text text-anchor="middle" x="74" y="-372.57" font-family="Times New Roman,serif" font-size="14.00">sv</text>
</g>
<!-- bn&#45;&gt;sv -->
<g id="edge54" class="edge">
<title>bn&#45;&gt;sv</title>
<path fill="none" stroke="black" d="M88.4,-432.05C86.35,-424.49 83.87,-415.37 81.56,-406.85"/>
<polygon fill="black" stroke="black" points="84.95,-405.98 78.95,-397.25 78.2,-407.82 84.95,-405.98"/>
</g>
<!-- bb -->
<g id="node28" class="node">
<title>bb</title>
<ellipse fill="none" stroke="black" cx="1125" cy="-450" rx="27" ry="18"/>
<text text-anchor="middle" x="1125" y="-444.57" font-family="Times New Roman,serif" font-size="14.00">bb</text>
</g>
<!-- bb&#45;&gt;rb -->
<g id="edge22" class="edge">
<title>bb&#45;&gt;rb</title>
<path fill="none" stroke="black" d="M1123.47,-468.23C1120.2,-505.01 1112.53,-591.5 1108.52,-636.57"/>
<polygon fill="black" stroke="black" points="1105.05,-636.07 1107.66,-646.34 1112.03,-636.69 1105.05,-636.07"/>
</g>
<!-- kf -->
<g id="node29" class="node">
<title>kf</title>
<ellipse fill="none" stroke="black" cx="1106" cy="-378" rx="27" ry="18"/>
<text text-anchor="middle" x="1106" y="-372.57" font-family="Times New Roman,serif" font-size="14.00">kf</text>
</g>
<!-- bb&#45;&gt;kf -->
<g id="edge21" class="edge">
<title>bb&#45;&gt;kf</title>
<path fill="none" stroke="black" d="M1120.4,-432.05C1118.35,-424.49 1115.87,-415.37 1113.56,-406.85"/>
<polygon fill="black" stroke="black" points="1116.95,-405.98 1110.95,-397.25 1110.2,-407.82 1116.95,-405.98"/>
</g>
<!-- kf&#45;&gt;rb -->
<g id="edge45" class="edge">
<title>kf&#45;&gt;rb</title>
<path fill="none" stroke="black" d="M1099.11,-395.86C1095.3,-406.12 1090.94,-419.59 1089,-432 1077.54,-505.26 1091.12,-592.71 1099.82,-636.72"/>
<polygon fill="black" stroke="black" points="1096.37,-637.36 1101.81,-646.45 1103.23,-635.95 1096.37,-637.36"/>
</g>
<!-- ph -->
<g id="node43" class="node">
<title>ph</title>
<ellipse fill="none" stroke="black" cx="1106" cy="-306" rx="27" ry="18"/>
<text text-anchor="middle" x="1106" y="-300.57" font-family="Times New Roman,serif" font-size="14.00">ph</text>
</g>
<!-- kf&#45;&gt;ph -->
<g id="edge46" class="edge">
<title>kf&#45;&gt;ph</title>
<path fill="none" stroke="black" d="M1106,-359.7C1106,-352.41 1106,-343.73 1106,-335.54"/>
<polygon fill="black" stroke="black" points="1109.5,-335.62 1106,-325.62 1102.5,-335.62 1109.5,-335.62"/>
</g>
<!-- nn -->
<g id="node30" class="node">
<title>nn</title>
<ellipse fill="none" stroke="black" cx="309" cy="-1026" rx="27" ry="18"/>
<text text-anchor="middle" x="309" y="-1020.58" font-family="Times New Roman,serif" font-size="14.00">nn</text>
</g>
<!-- nn&#45;&gt;xf -->
<g id="edge23" class="edge">
<title>nn&#45;&gt;xf</title>
<path fill="none" stroke="black" d="M322.06,-1009.8C343.34,-985.03 385.65,-935.79 410.82,-906.49"/>
<polygon fill="black" stroke="black" points="413.19,-909.1 417.05,-899.24 407.88,-904.54 413.19,-909.1"/>
</g>
<!-- nn&#45;&gt;bt -->
<g id="edge24" class="edge">
<title>nn&#45;&gt;bt</title>
<path fill="none" stroke="black" d="M295.43,-1010.15C286.94,-1000.87 275.83,-988.73 266.2,-978.19"/>
<polygon fill="black" stroke="black" points="268.91,-975.96 259.57,-970.94 263.74,-980.68 268.91,-975.96"/>
</g>
<!-- nk&#45;&gt;bt -->
<g id="edge26" class="edge">
<title>nk&#45;&gt;bt</title>
<path fill="none" stroke="black" d="M268.74,-1080.43C260.8,-1056.64 250.51,-1012.47 245.87,-983.41"/>
<polygon fill="black" stroke="black" points="249.39,-983.25 244.51,-973.84 242.46,-984.24 249.39,-983.25"/>
</g>
<!-- nk&#45;&gt;nn -->
<g id="edge25" class="edge">
<title>nk&#45;&gt;nn</title>
<path fill="none" stroke="black" d="M284.58,-1080.41C288.21,-1072.48 292.64,-1062.78 296.73,-1053.84"/>
<polygon fill="black" stroke="black" points="299.87,-1055.4 300.84,-1044.85 293.5,-1052.49 299.87,-1055.4"/>
</g>
<!-- vk -->
<g id="node33" class="node">
<title>vk</title>
<ellipse fill="none" stroke="black" cx="684" cy="-738" rx="27" ry="18"/>
<text text-anchor="middle" x="684" y="-732.58" font-family="Times New Roman,serif" font-size="14.00">vk</text>
</g>
<!-- kp&#45;&gt;vk -->
<g id="edge27" class="edge">
<title>kp&#45;&gt;vk</title>
<path fill="none" stroke="black" d="M684,-791.7C684,-784.41 684,-775.73 684,-767.54"/>
<polygon fill="black" stroke="black" points="687.5,-767.62 684,-757.62 680.5,-767.62 687.5,-767.62"/>
</g>
<!-- tk -->
<g id="node54" class="node">
<title>tk</title>
<ellipse fill="none" stroke="black" cx="779" cy="-666" rx="27" ry="18"/>
<text text-anchor="middle" x="779" y="-660.58" font-family="Times New Roman,serif" font-size="14.00">tk</text>
</g>
<!-- vk&#45;&gt;tk -->
<g id="edge64" class="edge">
<title>vk&#45;&gt;tk</title>
<path fill="none" stroke="black" d="M701.42,-724.16C715.66,-713.67 736.03,-698.66 752.32,-686.66"/>
<polygon fill="black" stroke="black" points="754.17,-689.64 760.15,-680.89 750.02,-684.01 754.17,-689.64"/>
</g>
<!-- kq -->
<g id="node40" class="node">
<title>kq</title>
<ellipse fill="none" stroke="black" cx="150" cy="-594" rx="27" ry="18"/>
<text text-anchor="middle" x="150" y="-588.58" font-family="Times New Roman,serif" font-size="14.00">kq</text>
</g>
<!-- pb&#45;&gt;kq -->
<g id="edge96" class="edge">
<title>pb&#45;&gt;kq</title>
<path fill="none" stroke="black" d="M164.4,-648.05C162.35,-640.49 159.87,-631.37 157.56,-622.85"/>
<polygon fill="black" stroke="black" points="160.95,-621.98 154.95,-613.25 154.2,-623.82 160.95,-621.98"/>
</g>
<!-- vs -->
<g id="node36" class="node">
<title>vs</title>
<ellipse fill="none" stroke="black" cx="560" cy="-1026" rx="27" ry="18"/>
<text text-anchor="middle" x="560" y="-1020.58" font-family="Times New Roman,serif" font-size="14.00">vs</text>
</g>
<!-- sr&#45;&gt;vs -->
<g id="edge33" class="edge">
<title>sr&#45;&gt;vs</title>
<path fill="none" stroke="black" d="M921.01,-1092.3C854.03,-1080.18 675.35,-1047.87 597.33,-1033.75"/>
<polygon fill="black" stroke="black" points="598.09,-1030.33 587.62,-1032 596.84,-1037.22 598.09,-1030.33"/>
</g>
<!-- sr&#45;&gt;ml -->
<g id="edge34" class="edge">
<title>sr&#45;&gt;ml</title>
<path fill="none" stroke="black" d="M941.29,-1079.95C938,-1053.29 938,-1000.11 938,-955 938,-955 938,-955 938,-377 938,-306.32 851.4,-265.37 801.34,-246.92"/>
<polygon fill="black" stroke="black" points="802.68,-243.68 792.08,-243.62 800.33,-250.27 802.68,-243.68"/>
</g>
<!-- vs&#45;&gt;tq -->
<g id="edge40" class="edge">
<title>vs&#45;&gt;tq</title>
<path fill="none" stroke="black" d="M560,-1007.7C560,-1000.41 560,-991.73 560,-983.54"/>
<polygon fill="black" stroke="black" points="563.5,-983.62 560,-973.62 556.5,-983.62 563.5,-983.62"/>
</g>
<!-- vs&#45;&gt;ml -->
<g id="edge41" class="edge">
<title>vs&#45;&gt;ml</title>
<path fill="none" stroke="black" d="M546.08,-1010.16C524.65,-985.68 486,-934.43 486,-883 486,-883 486,-883 486,-377 486,-332.27 497.49,-315.21 533,-288 590.7,-243.79 678.47,-235.22 728.5,-234.25"/>
<polygon fill="black" stroke="black" points="728.29,-237.75 738.26,-234.16 728.23,-230.75 728.29,-237.75"/>
</g>
<!-- ml&#45;&gt;tq -->
<g id="edge73" class="edge">
<title>ml&#45;&gt;tq</title>
<path fill="none" stroke="black" d="M739.9,-235.68C699.03,-238.05 621.11,-247.93 571,-288 536.06,-315.94 524,-332.27 524,-377 524,-811 524,-811 524,-811 524,-851.91 538.21,-897.46 548.78,-925.68"/>
<polygon fill="black" stroke="black" points="545.47,-926.83 552.34,-934.89 551.99,-924.3 545.47,-926.83"/>
</g>
<!-- ml&#45;&gt;nb -->
<g id="edge74" class="edge">
<title>ml&#45;&gt;nb</title>
<path fill="none" stroke="black" d="M779.37,-217.81C786.69,-208.82 796.13,-197.23 804.43,-187.03"/>
<polygon fill="black" stroke="black" points="807.1,-189.3 810.7,-179.33 801.67,-184.88 807.1,-189.3"/>
</g>
<!-- ml&#45;&gt;kp -->
<g id="edge71" class="edge">
<title>ml&#45;&gt;kp</title>
<path fill="none" stroke="black" d="M788.37,-245.34C825.96,-265.19 900,-312.48 900,-377 900,-667 900,-667 900,-667 900,-751.53 783.06,-788.54 721.27,-802.2"/>
<polygon fill="black" stroke="black" points="720.6,-798.77 711.54,-804.25 722.04,-805.62 720.6,-798.77"/>
</g>
<!-- ml&#45;&gt;vk -->
<g id="edge77" class="edge">
<title>ml&#45;&gt;vk</title>
<path fill="none" stroke="black" d="M741.23,-240.01C713.35,-246.63 669.15,-260.78 641,-288 609.69,-318.27 600,-333.45 600,-377 600,-595 600,-595 600,-595 600,-642.87 635.79,-688.75 660.65,-714.84"/>
<polygon fill="black" stroke="black" points="658.02,-717.16 667.53,-721.83 663.01,-712.25 658.02,-717.16"/>
</g>
<!-- ml&#45;&gt;sr -->
<g id="edge72" class="edge">
<title>ml&#45;&gt;sr</title>
<path fill="none" stroke="black" d="M792.61,-240.66C844.48,-254.88 956,-296.8 956,-377 956,-955 956,-955 956,-955 956,-994.48 956,-1040.12 953.8,-1068.78"/>
<polygon fill="black" stroke="black" points="950.34,-1068.15 952.86,-1078.44 957.31,-1068.83 950.34,-1068.15"/>
</g>
<!-- sh -->
<g id="node38" class="node">
<title>sh</title>
<ellipse fill="none" stroke="black" cx="779" cy="-594" rx="27" ry="18"/>
<text text-anchor="middle" x="779" y="-588.58" font-family="Times New Roman,serif" font-size="14.00">sh</text>
</g>
<!-- ml&#45;&gt;sh -->
<g id="edge76" class="edge">
<title>ml&#45;&gt;sh</title>
<path fill="none" stroke="black" d="M777.99,-250.78C794.55,-276.15 824,-328.12 824,-377 824,-451 824,-451 824,-451 824,-493.01 805.88,-538.88 792.64,-566.8"/>
<polygon fill="black" stroke="black" points="789.6,-565.03 788.34,-575.55 795.89,-568.12 789.6,-565.03"/>
</g>
<!-- ml&#45;&gt;tk -->
<g id="edge75" class="edge">
<title>ml&#45;&gt;tk</title>
<path fill="none" stroke="black" d="M783.98,-248.3C811.31,-271.33 862,-321.53 862,-377 862,-523 862,-523 862,-523 862,-570.72 826.63,-616.65 802.07,-642.79"/>
<polygon fill="black" stroke="black" points="799.73,-640.17 795.28,-649.78 804.76,-645.05 799.73,-640.17"/>
</g>
<!-- zk -->
<g id="node39" class="node">
<title>zk</title>
<ellipse fill="none" stroke="black" cx="750" cy="-522" rx="27" ry="18"/>
<text text-anchor="middle" x="750" y="-516.58" font-family="Times New Roman,serif" font-size="14.00">zk</text>
</g>
<!-- sh&#45;&gt;zk -->
<g id="edge35" class="edge">
<title>sh&#45;&gt;zk</title>
<path fill="none" stroke="black" d="M772.13,-576.41C768.84,-568.48 764.82,-558.78 761.12,-549.84"/>
<polygon fill="black" stroke="black" points="764.46,-548.77 757.4,-540.87 758,-551.45 764.46,-548.77"/>
</g>
<!-- zk&#45;&gt;ml -->
<g id="edge69" class="edge">
<title>zk&#45;&gt;ml</title>
<path fill="none" stroke="black" d="M735.28,-506.5C698.58,-468.55 609.27,-363.97 657,-288 672.84,-262.78 704.42,-249.28 729.7,-242.23"/>
<polygon fill="black" stroke="black" points="730.48,-245.64 739.32,-239.8 728.77,-238.86 730.48,-245.64"/>
</g>
<!-- ps -->
<g id="node57" class="node">
<title>ps</title>
<ellipse fill="none" stroke="black" cx="750" cy="-450" rx="27" ry="18"/>
<text text-anchor="middle" x="750" y="-444.57" font-family="Times New Roman,serif" font-size="14.00">ps</text>
</g>
<!-- zk&#45;&gt;ps -->
<g id="edge70" class="edge">
<title>zk&#45;&gt;ps</title>
<path fill="none" stroke="black" d="M750,-503.7C750,-496.41 750,-487.73 750,-479.54"/>
<polygon fill="black" stroke="black" points="753.5,-479.62 750,-469.62 746.5,-479.62 753.5,-479.62"/>
</g>
<!-- kq&#45;&gt;bt -->
<g id="edge39" class="edge">
<title>kq&#45;&gt;bt</title>
<path fill="none" stroke="black" d="M142.89,-611.7C132.4,-637.89 114,-690.46 114,-737 114,-811 114,-811 114,-811 114,-869.65 175.13,-914.44 213.87,-936.93"/>
<polygon fill="black" stroke="black" points="211.91,-939.84 222.34,-941.68 215.33,-933.73 211.91,-939.84"/>
</g>
<!-- kq&#45;&gt;tl -->
<g id="edge38" class="edge">
<title>kq&#45;&gt;tl</title>
<path fill="none" stroke="black" d="M150,-575.7C150,-568.41 150,-559.73 150,-551.54"/>
<polygon fill="black" stroke="black" points="153.5,-551.62 150,-541.62 146.5,-551.62 153.5,-551.62"/>
</g>
<!-- sv&#45;&gt;bt -->
<g id="edge43" class="edge">
<title>sv&#45;&gt;bt</title>
<path fill="none" stroke="black" d="M66.89,-395.7C56.4,-421.89 38,-474.46 38,-521 38,-811 38,-811 38,-811 38,-856.59 53.81,-871.02 89,-900 123.32,-928.26 173.47,-941.74 207.58,-947.97"/>
<polygon fill="black" stroke="black" points="206.55,-951.35 216.99,-949.57 207.72,-944.45 206.55,-951.35"/>
</g>
<!-- sv&#45;&gt;dx -->
<g id="edge42" class="edge">
<title>sv&#45;&gt;dx</title>
<path fill="none" stroke="black" d="M74,-359.7C74,-352.41 74,-343.73 74,-335.54"/>
<polygon fill="black" stroke="black" points="77.5,-335.62 74,-325.62 70.5,-335.62 77.5,-335.62"/>
</g>
<!-- gs -->
<g id="node42" class="node">
<title>gs</title>
<ellipse fill="none" stroke="black" cx="1592" cy="-234" rx="27" ry="18"/>
<text text-anchor="middle" x="1592" y="-228.57" font-family="Times New Roman,serif" font-size="14.00">gs</text>
</g>
<!-- gs&#45;&gt;gp -->
<g id="edge44" class="edge">
<title>gs&#45;&gt;gp</title>
<path fill="none" stroke="black" d="M1599.11,-251.7C1609.6,-277.89 1628,-330.46 1628,-377 1628,-739 1628,-739 1628,-739 1628,-809.14 1541.8,-851.26 1491.81,-869.79"/>
<polygon fill="black" stroke="black" points="1490.81,-866.43 1482.56,-873.09 1493.16,-873.03 1490.81,-866.43"/>
</g>
<!-- ph&#45;&gt;hx -->
<g id="edge60" class="edge">
<title>ph&#45;&gt;hx</title>
<path fill="none" stroke="black" d="M1099.36,-288.41C1096.23,-280.57 1092.4,-270.99 1088.85,-262.13"/>
<polygon fill="black" stroke="black" points="1092.11,-260.86 1085.15,-252.88 1085.61,-263.46 1092.11,-260.86"/>
</g>
<!-- ph&#45;&gt;rb -->
<g id="edge59" class="edge">
<title>ph&#45;&gt;rb</title>
<path fill="none" stroke="black" d="M1119.76,-321.99C1151.63,-358.6 1225.82,-455.75 1199,-540 1185.83,-581.37 1152.62,-620 1129.68,-643.06"/>
<polygon fill="black" stroke="black" points="1127.23,-640.56 1122.53,-650.05 1132.12,-645.56 1127.23,-640.56"/>
</g>
<!-- rt&#45;&gt;hq -->
<g id="edge58" class="edge">
<title>rt&#45;&gt;hq</title>
<path fill="none" stroke="black" d="M1243.03,-580.16C1228.24,-569.6 1207.06,-554.47 1190.21,-542.43"/>
<polygon fill="black" stroke="black" points="1192.26,-539.6 1182.09,-536.64 1188.2,-545.3 1192.26,-539.6"/>
</g>
<!-- sj&#45;&gt;kj -->
<g id="edge49" class="edge">
<title>sj&#45;&gt;kj</title>
<path fill="none" stroke="black" d="M1035.4,-1083.17C1047.22,-1073.2 1063.4,-1059.56 1076.85,-1048.21"/>
<polygon fill="black" stroke="black" points="1079.09,-1050.9 1084.48,-1041.78 1074.58,-1045.55 1079.09,-1050.9"/>
</g>
<!-- sj&#45;&gt;rb -->
<g id="edge50" class="edge">
<title>sj&#45;&gt;rb</title>
<path fill="none" stroke="black" d="M1013.29,-1079.95C1010,-1053.29 1010,-1000.11 1010,-955 1010,-955 1010,-955 1010,-809 1010,-758.96 1049.77,-711.67 1078.32,-686.29"/>
<polygon fill="black" stroke="black" points="1080.24,-689.25 1085.61,-680.11 1075.71,-683.91 1080.24,-689.25"/>
</g>
<!-- kh -->
<g id="node46" class="node">
<title>kh</title>
<ellipse fill="none" stroke="black" cx="693" cy="-306" rx="27" ry="18"/>
<text text-anchor="middle" x="693" y="-300.57" font-family="Times New Roman,serif" font-size="14.00">kh</text>
</g>
<!-- kh&#45;&gt;ml -->
<g id="edge51" class="edge">
<title>kh&#45;&gt;ml</title>
<path fill="none" stroke="black" d="M707.98,-290.83C718.24,-281.13 732.06,-268.06 743.74,-257"/>
<polygon fill="black" stroke="black" points="745.83,-259.84 750.69,-250.42 741.02,-254.75 745.83,-259.84"/>
</g>
<!-- nt&#45;&gt;gp -->
<g id="edge53" class="edge">
<title>nt&#45;&gt;gp</title>
<path fill="none" stroke="black" d="M1576.36,-323.97C1581.31,-350.52 1590,-403.56 1590,-449 1590,-739 1590,-739 1590,-739 1590,-798.22 1527.61,-842.93 1488.3,-865.23"/>
<polygon fill="black" stroke="black" points="1486.79,-862.06 1479.7,-869.94 1490.15,-868.2 1486.79,-862.06"/>
</g>
<!-- nt&#45;&gt;gs -->
<g id="edge52" class="edge">
<title>nt&#45;&gt;gs</title>
<path fill="none" stroke="black" d="M1577.6,-288.05C1579.65,-280.49 1582.13,-271.37 1584.44,-262.85"/>
<polygon fill="black" stroke="black" points="1587.8,-263.82 1587.05,-253.25 1581.05,-261.98 1587.8,-263.82"/>
</g>
<!-- lx -->
<g id="node48" class="node">
<title>lx</title>
<ellipse fill="none" stroke="black" cx="1393" cy="-1026" rx="27" ry="18"/>
<text text-anchor="middle" x="1393" y="-1020.58" font-family="Times New Roman,serif" font-size="14.00">lx</text>
</g>
<!-- lx&#45;&gt;gp -->
<g id="edge57" class="edge">
<title>lx&#45;&gt;gp</title>
<path fill="none" stroke="black" d="M1400.47,-1008.43C1411.4,-984.17 1431.89,-938.71 1444.97,-909.7"/>
<polygon fill="black" stroke="black" points="1448.04,-911.4 1448.96,-900.84 1441.66,-908.52 1448.04,-911.4"/>
</g>
<!-- ff -->
<g id="node49" class="node">
<title>ff</title>
<ellipse fill="none" stroke="black" cx="1355" cy="-954" rx="27" ry="18"/>
<text text-anchor="middle" x="1355" y="-948.58" font-family="Times New Roman,serif" font-size="14.00">ff</text>
</g>
<!-- lx&#45;&gt;ff -->
<g id="edge56" class="edge">
<title>lx&#45;&gt;ff</title>
<path fill="none" stroke="black" d="M1384.19,-1008.76C1379.73,-1000.55 1374.2,-990.37 1369.16,-981.09"/>
<polygon fill="black" stroke="black" points="1372.33,-979.6 1364.49,-972.48 1366.18,-982.94 1372.33,-979.6"/>
</g>
<!-- ff&#45;&gt;gp -->
<g id="edge80" class="edge">
<title>ff&#45;&gt;gp</title>
<path fill="none" stroke="black" d="M1373.24,-940.49C1388.8,-929.8 1411.44,-914.27 1429.25,-902.04"/>
<polygon fill="black" stroke="black" points="1431.07,-905.04 1437.33,-896.5 1427.1,-899.27 1431.07,-905.04"/>
</g>
<!-- ff&#45;&gt;df -->
<g id="edge81" class="edge">
<title>ff&#45;&gt;df</title>
<path fill="none" stroke="black" d="M1349.31,-936.15C1341.15,-912.03 1326.05,-867.36 1316.27,-838.43"/>
<polygon fill="black" stroke="black" points="1319.69,-837.61 1313.17,-829.26 1313.06,-839.85 1319.69,-837.61"/>
</g>
<!-- hq&#45;&gt;bb -->
<g id="edge67" class="edge">
<title>hq&#45;&gt;bb</title>
<path fill="none" stroke="black" d="M1154.19,-504.76C1149.73,-496.55 1144.2,-486.37 1139.16,-477.09"/>
<polygon fill="black" stroke="black" points="1142.33,-475.6 1134.49,-468.48 1136.18,-478.94 1142.33,-475.6"/>
</g>
<!-- ls&#45;&gt;lg -->
<g id="edge61" class="edge">
<title>ls&#45;&gt;lg</title>
<path fill="none" stroke="black" d="M1312,-156.46C1242.94,-144.41 1054.71,-111.55 974.26,-97.5"/>
<polygon fill="black" stroke="black" points="975.15,-94.11 964.69,-95.83 973.94,-101 975.15,-94.11"/>
</g>
<!-- nv&#45;&gt;xm -->
<g id="edge62" class="edge">
<title>nv&#45;&gt;xm</title>
<path fill="none" stroke="black" d="M1391.81,-720.76C1396.27,-712.55 1401.8,-702.37 1406.84,-693.09"/>
<polygon fill="black" stroke="black" points="1409.82,-694.94 1411.51,-684.48 1403.67,-691.6 1409.82,-694.94"/>
</g>
<!-- df&#45;&gt;nv -->
<g id="edge63" class="edge">
<title>df&#45;&gt;nv</title>
<path fill="none" stroke="black" d="M1322.38,-794.83C1332.99,-785.06 1347.3,-771.88 1359.35,-760.78"/>
<polygon fill="black" stroke="black" points="1361.55,-763.52 1366.53,-754.17 1356.8,-758.37 1361.55,-763.52"/>
</g>
<!-- tk&#45;&gt;sh -->
<g id="edge101" class="edge">
<title>tk&#45;&gt;sh</title>
<path fill="none" stroke="black" d="M779,-647.7C779,-640.41 779,-631.73 779,-623.54"/>
<polygon fill="black" stroke="black" points="782.5,-623.62 779,-613.62 775.5,-623.62 782.5,-623.62"/>
</g>
<!-- mq&#45;&gt;pr -->
<g id="edge88" class="edge">
<title>mq&#45;&gt;pr</title>
<path fill="none" stroke="black" d="M1501.6,-504.05C1503.65,-496.49 1506.13,-487.37 1508.44,-478.85"/>
<polygon fill="black" stroke="black" points="1511.8,-479.82 1511.05,-469.25 1505.05,-477.98 1511.8,-479.82"/>
</g>
<!-- ps&#45;&gt;ml -->
<g id="edge109" class="edge">
<title>ps&#45;&gt;ml</title>
<path fill="none" stroke="black" d="M756.89,-432.14C760.7,-421.88 765.06,-408.41 767,-396 774.2,-349.96 772.02,-295.61 769.63,-263.3"/>
<polygon fill="black" stroke="black" points="773.14,-263.25 768.84,-253.56 766.16,-263.81 773.14,-263.25"/>
</g>
<!-- qz -->
<g id="node59" class="node">
<title>qz</title>
<ellipse fill="none" stroke="black" cx="731" cy="-378" rx="27" ry="18"/>
<text text-anchor="middle" x="731" y="-372.57" font-family="Times New Roman,serif" font-size="14.00">qz</text>
</g>
<!-- ps&#45;&gt;qz -->
<g id="edge108" class="edge">
<title>ps&#45;&gt;qz</title>
<path fill="none" stroke="black" d="M745.4,-432.05C743.35,-424.49 740.87,-415.37 738.56,-406.85"/>
<polygon fill="black" stroke="black" points="741.95,-405.98 735.95,-397.25 735.2,-407.82 741.95,-405.98"/>
</g>
<!-- tp&#45;&gt;gp -->
<g id="edge99" class="edge">
<title>tp&#45;&gt;gp</title>
<path fill="none" stroke="black" d="M1423.69,-1079.85C1425.68,-1042.98 1438.42,-955.86 1448.1,-910.91"/>
<polygon fill="black" stroke="black" points="1451.45,-911.94 1450.27,-901.41 1444.63,-910.38 1451.45,-911.94"/>
</g>
<!-- tp&#45;&gt;lx -->
<g id="edge100" class="edge">
<title>tp&#45;&gt;lx</title>
<path fill="none" stroke="black" d="M1417.42,-1080.41C1413.79,-1072.48 1409.36,-1062.78 1405.27,-1053.84"/>
<polygon fill="black" stroke="black" points="1408.5,-1052.49 1401.16,-1044.85 1402.13,-1055.4 1408.5,-1052.49"/>
</g>
<!-- qz&#45;&gt;ml -->
<g id="edge97" class="edge">
<title>qz&#45;&gt;ml</title>
<path fill="none" stroke="black" d="M735.34,-359.87C741.42,-335.88 752.55,-291.99 759.86,-263.16"/>
<polygon fill="black" stroke="black" points="763.21,-264.21 762.27,-253.66 756.42,-262.49 763.21,-264.21"/>
</g>
<!-- qz&#45;&gt;kh -->
<g id="edge98" class="edge">
<title>qz&#45;&gt;kh</title>
<path fill="none" stroke="black" d="M722.19,-360.76C717.73,-352.55 712.2,-342.37 707.16,-333.09"/>
<polygon fill="black" stroke="black" points="710.33,-331.6 702.49,-324.48 704.18,-334.94 710.33,-331.6"/>
</g>
</g>
</svg>
